# xmcd
#
# Track frame offsets:
#	150
#	19508
#	34226
#	57505
#	73438
#	89129
#	103668
#	116678
#	128830
#	141754
#	155902
#	171366
#	183227
#
# Disc length: 2701 seconds
#
# Revision: 0
# Processed by: cddbd v1.5.2PL0 Copyright (c) Steve Scherf et al.
# Submitted via: EasyCDDAExtractor 9.1.0.1
#
DISCID=c50a8b0d
DTITLE=Erich Lindenthaler - Country Songs and Others
DYEAR=2020
DGENRE=Pop
TTITLE0=Riding On
TTITLE1=I Think You Know
TTITLE2=Shine On
TTITLE3=Hop On Top
TTITLE4=Oh Minnie
TTITLE5=Burning Light
TTITLE6=You Say You Love Me
TTITLE7=First Time Love
TTITLE8=Hello Everybody
TTITLE9=Big Fat Mama With the Golden Pyjamas
TTITLE10=Blue Eyed Woman
TTITLE11=Sitting In the Housebar
TTITLE12=Fooled Man
EXTD=
EXTT0=
EXTT1=
EXTT2=
EXTT3=
EXTT4=
EXTT5=
EXTT6=
EXTT7=
EXTT8=
EXTT9=
EXTT10=
EXTT11=
EXTT12=
PLAYORDER=
